# xmcd
#
# Track frame offsets:
#	150
#	12183
#	27567
#	41432
#	58208
#	75518
#	94341
#	110179
#	126421
#	138611
#
# Disc length: 2054 seconds
# Revision: 0
# Processed by: cddbd v1.5.2PL0 Copyright (c) Steve Scherf et al.
# Submitted via: dBpowerAMP V12.0
#
DISCID=8e08040a
DTITLE=Michael Martin Murphey - Red River Drifter
DYEAR=2013
DGENRE=Country
TTITLE0=Peaceful Country
TTITLE1=Under A Rolling Sky
TTITLE2=Secret Smile
TTITLE3=Faded Blues
TTITLE4=Shake It Off
TTITLE5=Hardscrabble Creek
TTITLE6=Mountain Storm
TTITLE7=The Gathering
TTITLE8=New Old Love
TTITLE9=Unfinished Symphony
EXTD=
EXTT0=
EXTT1=
EXTT2=
EXTT3=
EXTT4=
EXTT5=
EXTT6=
EXTT7=
EXTT8=
EXTT9=
PLAYORDER=
